<svg data-v-423bf9ae="" xmlns="http://www.w3.org/2000/svg" viewBox="0 0 470 90" class="iconLeft"><!----><!----><!----><g data-v-423bf9ae="" id="45f07c4e-17c7-4089-bd51-43387b33f7c0" fill="#ffffff" transform="matrix(4.946413803291662,0,0,4.946413803291662,104.90416547700093,11.982688343698094)"><path d="M5.50 2.10L1.03 2.10L1.03 12.60L3.34 12.60L3.34 8.35L5.50 8.35C7.26 8.35 8.63 7.04 8.63 5.27C8.63 3.52 7.26 2.10 5.50 2.10ZM5.13 6.44L3.34 6.44L3.34 4.13L5.13 4.13C5.86 4.13 6.42 4.60 6.42 5.29C6.42 5.99 5.86 6.44 5.13 6.44ZM12.86 12.74C14.98 12.74 16.15 11.64 16.15 9.92L16.15 5.60L13.93 5.60L13.93 9.63C13.93 10.29 13.48 10.76 12.86 10.76C12.27 10.76 11.81 10.29 11.81 9.63L11.81 5.60L9.57 5.60L9.57 9.92C9.57 11.64 10.75 12.74 12.86 12.74ZM18.08 12.60L20.32 12.60L20.32 0.61L18.08 0.61ZM24.64 12.74C26.22 12.74 27.18 11.78 27.18 10.47C27.18 9.07 26.02 8.51 25.03 8.12C24.52 7.91 24.27 7.81 24.27 7.54C24.27 7.32 24.45 7.14 24.83 7.14C25.29 7.14 25.71 7.39 25.92 7.65L27.04 6.39C26.51 5.86 25.66 5.46 24.68 5.46C23.08 5.46 22.07 6.51 22.07 7.70C22.07 9.10 23.47 9.57 24.27 9.87C24.90 10.12 25.11 10.29 25.11 10.54C25.11 10.82 24.87 10.97 24.50 10.97C24.13 10.97 23.64 10.83 23.33 10.24L21.68 11.06C22.10 12.15 23.40 12.74 24.64 12.74ZM35.67 9.08C35.67 6.90 34.16 5.44 31.90 5.44C29.65 5.44 28.05 6.91 28.05 9.10C28.05 11.29 29.63 12.74 31.97 12.74C33.91 12.74 35.21 11.71 35.56 10.19L33.41 10.19C33.22 10.75 32.71 11.08 31.94 11.08C30.92 11.08 30.40 10.47 30.31 9.47L35.67 9.47ZM31.94 7.16C32.69 7.16 33.13 7.51 33.36 8.12L30.45 8.12C30.68 7.53 31.15 7.16 31.94 7.16ZM42.23 12.74C44.31 12.74 46.11 11.57 47.01 9.85L45.01 8.82C44.50 9.82 43.47 10.48 42.23 10.48C40.46 10.48 39.11 9.12 39.11 7.35C39.11 5.58 40.46 4.22 42.23 4.22C43.47 4.22 44.50 4.88 45.01 5.88L47.01 4.85C46.11 3.13 44.31 1.96 42.23 1.96C39.25 1.96 36.84 4.38 36.84 7.35C36.84 10.33 39.25 12.74 42.23 12.74ZM51.91 12.74C54.25 12.74 55.79 11.20 55.79 9.10C55.79 7.00 54.25 5.46 51.91 5.46C49.56 5.46 48.00 7.00 48.00 9.10C48.00 11.20 49.56 12.74 51.91 12.74ZM51.91 10.76C50.94 10.75 50.24 10.05 50.24 9.10C50.24 8.16 50.94 7.46 51.91 7.44C52.85 7.46 53.57 8.16 53.57 9.10C53.57 10.05 52.85 10.75 51.91 10.76ZM62.35 0.61L62.35 6.21C61.83 5.74 61.16 5.46 60.36 5.46C58.42 5.46 56.89 7.07 56.89 9.10C56.89 11.13 58.42 12.74 60.36 12.74C61.16 12.74 61.83 12.46 62.35 11.99L62.35 12.62L64.58 12.60L64.58 0.61ZM60.80 10.76C59.87 10.76 59.13 10.03 59.13 9.10C59.13 8.17 59.87 7.44 60.80 7.44C61.71 7.44 62.46 8.17 62.46 9.10C62.46 10.03 61.71 10.76 60.80 10.76ZM73.76 9.08C73.76 6.90 72.26 5.44 70.00 5.44C67.74 5.44 66.15 6.91 66.15 9.10C66.15 11.29 67.73 12.74 70.07 12.74C72.01 12.74 73.31 11.71 73.66 10.19L71.51 10.19C71.31 10.75 70.81 11.08 70.04 11.08C69.02 11.08 68.50 10.47 68.41 9.47L73.76 9.47ZM70.04 7.16C70.79 7.16 71.23 7.51 71.45 8.12L68.55 8.12C68.78 7.53 69.25 7.16 70.04 7.16Z"></path></g><!----><g data-v-423bf9ae="" id="02bb0126-f5e8-4372-ac22-f249ba36e542" transform="matrix(1.0321574485294105,0,0,1.0321574485294105,-6.205356188656808,-6.205871983890567)" stroke="none" fill="#C67D4E"><path d="M83.598 6.402H16.402c-5.522 0-10 4.477-10 10v23.765h9.505v20.666h9.378V40.167h14.908v20.666h9.377V40.167h14.907v20.666h9.378V40.167h14.907v20.666h4.835V16.402c.001-5.523-4.477-10-9.999-10zm.165 38.765h-4.907v20.666H59.478V45.167H54.57v20.666H35.193V45.167h-4.908v20.666H10.907V45.167H6.402v38.431c0 5.523 4.478 10 10 10h67.195c5.522 0 10-4.477 10-10V65.833h-9.835V45.167z"></path></g><!----></svg>